mtllib materials.mtl
v -0.2826605 1.27646 0.05057883
v -0.2826604 1.168611 -0.4419212
v -0.2026604 1.168611 -0.4419212
v -0.2026606 1.27646 0.05057883
v -0.2826604 0.87396 -0.8024562
v -0.2026603 0.87396 -0.8024562
v -0.2826602 0.47146 -0.9344211
v -0.2026603 0.47146 -0.9344211
v -0.2826604 0.06896001 -0.8024562
v -0.2026603 0.06896001 -0.8024562
v -0.2826604 -0.06569046 -0.3519213
v -0.2026604 -0.06569046 -0.3519213
v -0.2826605 -0.13354 0.02057892
v -0.2026606 -0.13354 0.02057892
v -0.2426606 -0.05569023 0.413079
v -0.2826607 0.06896013 0.9036139
v -0.2026607 0.06896013 0.9036139
v -0.2826607 0.47146 1.035579
v -0.2026608 0.47146 1.035579
v -0.2826607 0.87396 0.9036139
v -0.2026607 0.87396 0.9036139
v -0.2826606 1.168611 0.5430786
v -0.2026607 1.168611 0.5430786
v -0.2826606 -0.05569023 0.403079
v 0.2173394 1.28646 0.02057874
v 0.2173395 1.178611 -0.4719213
v 0.2973394 1.178611 -0.4719213
v 0.2973393 1.28646 0.02057874
v 0.2173395 0.8839601 -0.8324563
v 0.2973396 0.8839601 -0.8324563
v 0.2173396 0.4814602 -0.9644212
v 0.2973396 0.4814602 -0.9644212
v 0.2173395 0.07896012 -0.8324563
v 0.2973396 0.07896012 -0.8324563
v 0.2173395 -0.05569035 -0.3819214
v 0.2973394 -0.05569035 -0.3819214
v 0.2173394 -0.1235399 -0.00942117
v 0.2973393 -0.1235399 -0.00942117
v 0.2173393 -0.04569012 0.3830789
v 0.2573392 -0.04569012 0.3830789
v 0.2573391 0.07896024 0.8736138
v 0.2973392 0.07896024 0.8736138
v 0.2173392 0.4814602 1.005579
v 0.2973391 0.4814602 1.005579
v 0.2173392 0.8839601 0.8736138
v 0.2973392 0.8839601 0.8736138
v 0.2173393 1.178611 0.5130785
v 0.2973392 1.178611 0.5130785
v 0.3023397 -0.6885397 0.3455791
v -0.2776605 -0.6885397 0.3455791
v -0.2776607 -0.06853986 0.3455792
v 0.3023397 -0.06853974 0.3455792
v 0.3023397 -0.6885395 -0.4144216
v 0.3023397 -0.06853962 -0.4144216
v -0.2776607 -0.06853968 -0.4144216
v -0.2776606 -0.6885396 -0.4144219
v 0.3093054 -0.3580409 0.3442408
v 0.299934 -0.3551047 0.3423556
v 0.6081548 0.08218032 1.030602
v 0.6161881 0.07627887 1.029802
v 0.3001708 -0.3759949 -0.4125041
v 0.5918245 0.09061044 -1.050819
v 0.2914585 -0.3712859 -0.411118
v 0.6000063 0.0856244 -1.047957
v -0.2845829 -0.3604314 0.3654408
v -0.2906574 -0.3683012 0.3665199
v -0.6957525 0.1142667 1.047033
v -0.2715487 -0.3618965 -0.4086193
v -0.532149 0.1000782 -1.114829
v -0.278986 -0.368578 -0.408833
v -0.7026323 0.1073484 1.044841
v -0.5437411 0.09417999 -1.118393
v -0.2808636 -0.3583261 0.3410752
v -0.6884571 0.1122873 1.040157
v -0.688666 0.1045429 1.045871
v 0.3032728 -0.3628526 0.341558
v 0.6007865 0.0671376 1.042306
v 0.6009952 0.07488209 1.036592
v 0.30238 -0.3557857 0.335082
v -0.2842679 -0.3652563 0.3468249
v -0.2814666 -0.360773 -0.4126959
v -0.2833002 -0.3682469 -0.4184801
v -0.5392534 0.09773517 -1.114563
v 0.3034749 -0.3648285 -0.4071756
v 0.6068624 0.09459865 -1.053162
v 0.6071458 0.0865106 -1.058375
v 0.3040688 -0.3725353 -0.4129141
v -0.5357996 0.09084159 -1.120327
vn 0 0.9768523 -0.2139147
vn 0 0.9768523 -0.2139148
vn 0 0.7743073 -0.6328098
vn 0 0.7743073 -0.6328098
vn 0 0.3115458 -0.9502311
vn 0 0.3115458 -0.9502311
vn 0 -0.3115458 -0.9502312
vn 0 -0.3115458 -0.9502312
vn 0 -0.9581243 -0.2863527
vn 0 -0.9581243 -0.2863527
vn 0 -0.983813 -0.1791979
vn 0 -0.983813 -0.1791979
vn 0 -0.9808919 0.1945533
vn 0 -0.9691978 0.2462839
vn 0 -0.3115458 0.9502311
vn 0 -0.3115458 0.9502311
vn 0 0.3115458 0.9502311
vn 0 0.3115458 0.9502311
vn 0 0.7743074 0.6328096
vn 0 0.7743074 0.6328096
vn 0 0.9768523 0.2139146
vn 0 0.9768523 0.2139146
vn -1 1.480854E-07 -2.096212E-07
vn -1 -1.084065E-07 -3.306455E-07
vn -1 6.258853E-08 -1.908983E-07
vn -1 4.936203E-08 -2.096209E-07
vn -1 1.709951E-07 -3.817966E-07
vn -1 -2.961722E-07 5.013914E-14
vn -1 4.045784E-07 -3.306454E-07
vn 1 -2.739657E-13 2.420494E-07
vn 1 1.084064E-07 2.420494E-07
vn 1 -9.388285E-08 2.863475E-07
vn 1 6.872698E-08 2.096209E-07
vn 1 6.872703E-08 2.096209E-07
vn 1 1.480862E-07 4.516702E-07
vn 1 -4.045787E-07 -3.306455E-07
vn -1 -2.741776E-06 -8.19429E-07
vn -1 1.615058E-06 -6.403689E-07
vn -1 -2.63289E-07 -2.096208E-07
vn 1 4.748887E-07 4.06524E-07
vn 0.2840882 -0.9345397 0.2143114
vn 1 -3.253988E-07 2.096209E-07
vn -0.04979798 -0.9786943 0.1991923
vn -0.06030345 -0.9685966 0.2412138
vn 0 0.9768522 -0.213915
vn 0 0.9768523 -0.213915
vn 0 0.7743073 -0.6328098
vn 0 0.7743073 -0.6328098
vn 0 0.3115458 -0.9502311
vn 0 0.3115458 -0.9502311
vn 0 -0.3115458 -0.9502312
vn 0 -0.3115458 -0.9502312
vn 0 -0.9581243 -0.2863527
vn 0 -0.9581243 -0.2863527
vn 0 -0.983813 -0.1791979
vn 0 -0.983813 -0.1791979
vn 0 -0.9808919 0.1945533
vn 0 -0.9808919 0.1945533
vn 0 -0.9691978 0.2462839
vn 0 -0.9691977 0.2462839
vn 0 -0.3115458 0.9502311
vn 0 -0.3115458 0.9502311
vn 0 0.3115458 0.9502311
vn 0 0.3115458 0.9502311
vn 0 0.7743074 0.6328096
vn 0 0.7743074 0.6328096
vn 0 0.9768523 0.2139148
vn 0 0.9768523 0.2139149
vn -1 1.480855E-07 -2.096211E-07
vn -1 -1.084065E-07 -3.306455E-07
vn -1 4.581799E-08 -2.046042E-07
vn -1 1.709951E-07 -3.817966E-07
vn -1 -2.961723E-07 1.002783E-13
vn -1 4.045785E-07 -3.306455E-07
vn 1 -2.739654E-13 2.420494E-07
vn 1 1.084064E-07 2.420494E-07
vn 1 -9.388285E-08 2.863475E-07
vn 1 6.872698E-08 2.096209E-07
vn 1 6.872703E-08 2.096209E-07
vn 1 1.480862E-07 4.516702E-07
vn 1 -4.045787E-07 -3.306455E-07
vn -1 -2.741776E-06 -8.19429E-07
vn -0.5570939 0.8145812 -0.1615668
vn -0.9952194 0.09483608 0.02333337
vn 1 4.748887E-07 4.06524E-07
vn 0.2840882 -0.9345397 0.2143114
vn 1 -3.253988E-07 2.096209E-07
vn -0.9940472 -0.1064284 0.0233059
vn -1.027666E-07 -1.922731E-07 1
vn -1.027665E-07 -1.922731E-07 1
vn 0 0 -1
vn 4.110663E-07 3.845462E-07 -1
vn 1.541499E-07 -1 -1.960677E-07
vn 1.027666E-07 -1 -1.568542E-07
vn -2.055331E-07 1 2.352812E-07
vn -1.027666E-07 1 1.568542E-07
vn 1 0 0
vn 1 0 0
vn -1 -1.922731E-07 1.568541E-07
vn -1 -3.845462E-07 -9.264793E-14
vn -0.3461331 -0.7139683 0.6086387
vn -0.4274607 -0.6648686 0.6125578
vn -0.4380962 -0.6185204 -0.6523068
vn -0.4723639 -0.8810704 0.02423481
vn 0.5919513 0.8059725 -0.001379969
vn 0.5204439 0.8538958 -0.0002125329
vn 0.8403252 -0.5420758 0.002717358
vn -0.8397303 0.5429991 -0.00221533
vn 0.82328 -0.5675647 -0.008964615
vn -0.8237734 0.5668517 0.008758967
vn -0.2241726 -0.7351224 -0.6397982
vn -0.3036858 -0.9524102 0.02626199
vn 0.6349735 -0.3994513 0.6612468
vn 0.5489302 -0.5921621 -0.5899319
vn 0.6680431 -0.744015 0.01265723
vn -0.6990986 0.7128533 -0.05568874
vn 0.8618912 0.5069122 0.01355356
vn -0.8593583 -0.5112151 -0.01275348
vn 0.4035036 -0.6157154 0.6768156
vn -0.7918989 -0.6082187 -0.05446314
vn 0.7931054 0.6065009 0.05603946
vn 0.5021079 -0.6266202 -0.5960159
vn -0.4434739 0.8954192 -0.03943755
vn 0.792357 -0.6099367 0.01214511
vn -0.9002337 -0.2425405 -0.3615982
vn 0.9391722 -0.2199501 -0.2637756
vn 0.9398031 -0.1586247 -0.3026688
vn -0.005146507 -0.6370036 -0.7708436
vn 0.01943572 0.5932936 0.8047515
vn 0.01943564 0.5932891 0.8047548
vn -0.02272874 -0.8358029 0.5485589
vn 0.02271588 0.8354163 -0.549148
vn -0.003841569 -0.6758776 -0.7370039
vn 0.008158927 -0.8538425 0.5204675
vn -0.009066318 0.8538977 -0.520362
vn -0.8637519 0.006247056 -0.5038785
vn -0.9434601 -0.02438934 0.3305878
vn 0.9330381 -0.1712553 0.3164043
vn 0.9327974 -0.1662244 0.3197789
vn -0.01170932 -0.5977636 0.8015869
vn -0.01196179 -0.6101578 0.7921895
vn 0.04642573 0.5423453 -0.838872
vn 0.000179493 0.8148802 0.5796294
vn -0.0004557699 -0.8148234 -0.579709
vn 0.0268739 -0.832108 -0.5539621
vn -0.02738818 0.8322412 0.5537367
vn -0.8876734 -0.4601061 0.01839099
vn 0.04343435 0.6535674 -0.755621
vt 0.5334392 0.4126641
vt 0.557941 0.4185915
vt 0.5570004 0.4224794
vt 0.5334392 0.4126641
vt 0.5570004 0.4224794
vt 0.5324987 0.4165519
vt 0.4806834 0.4079464
vt 0.5039461 0.407019
vt 0.5041054 0.4110158
vt 0.4806834 0.4079464
vt 0.5041054 0.4110158
vt 0.4808428 0.4119432
vt 0.4171669 0.4314401
vt 0.4370695 0.4241986
vt 0.4384372 0.4279575
vt 0.4171669 0.4314401
vt 0.4384372 0.4279575
vt 0.4185346 0.435199
vt 0.3792779 0.4632695
vt 0.3975477 0.4525565
vt 0.399571 0.456007
vt 0.3792779 0.4632695
vt 0.399571 0.456007
vt 0.3813013 0.46672
vt 0.3818673 0.4542396
vt 0.4030189 0.4439734
vt 0.4047655 0.4475719
vt 0.3818673 0.4542396
vt 0.4047655 0.4475719
vt 0.3836139 0.4578381
vt 0.4073362 0.4394939
vt 0.4246583 0.4318556
vt 0.4262722 0.4355155
vt 0.4073362 0.4394939
vt 0.4262722 0.4355155
vt 0.4089501 0.4431539
vt 0.4488592 0.4172674
vt 0.4687459 0.4142983
vt 0.4498405 0.4211452
vt 0.4974734 0.4055352
vt 0.4983441 0.4094393
vt 0.4732092 0.4129953
vt 0.5718656 0.4274496
vt 0.5917682 0.4346911
vt 0.5904005 0.43845
vt 0.5718656 0.4274496
vt 0.5904005 0.43845
vt 0.5704979 0.4312085
vt 0.5942503 0.4477469
vt 0.61252 0.4584599
vt 0.6104967 0.4619105
vt 0.5942503 0.4477469
vt 0.6104967 0.4619105
vt 0.5922269 0.4511974
vt 0.5870163 0.4437668
vt 0.6070418 0.4556408
vt 0.6050017 0.4590814
vt 0.5870163 0.4437668
vt 0.6050017 0.4590814
vt 0.5849762 0.4472075
vt 0.5664203 0.428345
vt 0.5893581 0.4388009
vt 0.587699 0.4424406
vt 0.5664203 0.428345
vt 0.587699 0.4424406
vt 0.5647612 0.4319847
vt 0.468555 0.6038091
vt 0.4516511 0.5851081
vt 0.4455453 0.5626419
vt 0.4685549 0.6038091
vt 0.4455452 0.5626419
vt 0.4518734 0.5424303
vt 0.468555 0.6038091
vt 0.4518735 0.5424303
vt 0.4689401 0.5298891
vt 0.468555 0.6038091
vt 0.4689401 0.5298891
vt 0.5383544 0.5794708
vt 0.468555 0.6038091
vt 0.5383544 0.5794708
vt 0.5320262 0.5996823
vt 0.468555 0.6038092
vt 0.5320262 0.5996824
vt 0.5149596 0.6122236
vt 0.468555 0.6038091
vt 0.5149596 0.6122235
vt 0.4917275 0.6137341
vt 0.5483489 0.5851081
vt 0.531445 0.6038091
vt 0.5082725 0.6137341
vt 0.5483489 0.5851081
vt 0.5082725 0.6137341
vt 0.4850405 0.6122236
vt 0.5483489 0.5851081
vt 0.4850405 0.6122236
vt 0.4679738 0.5996823
vt 0.5483489 0.5851081
vt 0.4679738 0.5996823
vt 0.4616456 0.5794708
vt 0.5483489 0.5851081
vt 0.4616456 0.5794708
vt 0.5310599 0.5298891
vt 0.548349 0.585108
vt 0.53106 0.5298891
vt 0.5481266 0.5424303
vt 0.5483487 0.5851082
vt 0.5481265 0.5424304
vt 0.5544546 0.562642
vt 0.5107525 0.547313
vt 0.5239365 0.5608991
vt 0.5383539 0.5794711
vt 0.4689402 0.529889
vt 0.4929278 0.5393639
vt 0.510753 0.5473126
vt 0.5107529 0.5473128
vt 0.5383543 0.5794708
vt 0.4689401 0.5298892
vt 0.4616457 0.5794709
vt 0.4760633 0.560899
vt 0.4892472 0.5473128
vt 0.4572302 0.4335377
vt 0.476367 0.4273672
vt 0.5015518 0.4241842
vt 0.4892471 0.5473127
vt 0.5310599 0.5298891
vt 0.4616456 0.5794708
vt 0.4482255 0.415686
vt 0.4671248 0.4108143
vt 0.4680991 0.4126311
vt 0.4716006 0.4111944
vt 0.4706712 0.4093542
vt 0.4957827 0.4034724
vt 0.528881 0.4372825
vt 0.5533828 0.4432099
vt 0.5524423 0.4470978
vt 0.528881 0.4372825
vt 0.5524423 0.4470978
vt 0.5279405 0.4411704
vt 0.4825237 0.4328929
vt 0.5057864 0.4319655
vt 0.5059457 0.4359623
vt 0.4825237 0.4328929
vt 0.5059457 0.4359623
vt 0.482683 0.4368897
vt 0.4257076 0.454936
vt 0.4456102 0.4476945
vt 0.4469779 0.4514534
vt 0.4257076 0.454936
vt 0.4469779 0.4514534
vt 0.4270753 0.4586949
vt 0.3911107 0.485312
vt 0.4093805 0.474599
vt 0.4114038 0.4780495
vt 0.3911107 0.485312
vt 0.4114038 0.4780495
vt 0.3931341 0.4887625
vt 0.3913618 0.4774204
vt 0.4125133 0.4671543
vt 0.4142599 0.4707528
vt 0.3913618 0.4774204
vt 0.4142599 0.4707528
vt 0.3931084 0.481019
vt 0.4159909 0.4630003
vt 0.433313 0.4553619
vt 0.4349268 0.4590219
vt 0.4159909 0.4630003
vt 0.4349268 0.4590219
vt 0.4176047 0.4666602
vt 0.4536599 0.4418406
vt 0.4730559 0.4369326
vt 0.4735465 0.4388715
vt 0.4536599 0.4418406
vt 0.4735465 0.4388715
vt 0.4546412 0.4457184
vt 0.4769165 0.4357335
vt 0.5020514 0.4321775
vt 0.5024866 0.4341296
vt 0.4769165 0.4357335
vt 0.5024866 0.4341296
vt 0.4773518 0.4376855
vt 0.5626411 0.452825
vt 0.5832275 0.458187
vt 0.5818598 0.4619459
vt 0.5626411 0.452825
vt 0.5818598 0.4619459
vt 0.5619573 0.4547044
vt 0.5824175 0.4697894
vt 0.6006872 0.4805024
vt 0.5986639 0.483953
vt 0.5824175 0.4697894
vt 0.5986639 0.483953
vt 0.5803941 0.4732399
vt 0.5755368 0.4660245
vt 0.5955623 0.4778985
vt 0.5935223 0.4813392
vt 0.5755368 0.4660245
vt 0.5935223 0.4813392
vt 0.5734968 0.4694652
vt 0.5574816 0.4517453
vt 0.5804194 0.4622011
vt 0.5787603 0.4658408
vt 0.5574816 0.4517453
vt 0.5787603 0.4658408
vt 0.5558225 0.455385
vt 0.469485 0.6050879
vt 0.4525811 0.5863868
vt 0.4464752 0.5639206
vt 0.4694849 0.6050879
vt 0.4464752 0.5639206
vt 0.4528034 0.5437091
vt 0.469485 0.6050879
vt 0.4528034 0.5437091
vt 0.5392844 0.5807495
vt 0.469485 0.6050878
vt 0.5392843 0.5807495
vt 0.5329562 0.6009611
vt 0.469485 0.6050879
vt 0.5329562 0.6009611
vt 0.5158895 0.6135023
vt 0.469485 0.6050878
vt 0.5158896 0.6135023
vt 0.4926575 0.6150128
vt 0.5474189 0.5863868
vt 0.5305151 0.6050879
vt 0.5073426 0.6150128
vt 0.547419 0.5863868
vt 0.5073426 0.6150128
vt 0.4841105 0.6135023
vt 0.5474189 0.5863868
vt 0.4841105 0.6135023
vt 0.4670438 0.6009611
vt 0.5474189 0.5863868
vt 0.4670438 0.6009611
vt 0.4607156 0.5807496
vt 0.5474189 0.5863868
vt 0.4607156 0.5807496
vt 0.5301299 0.5311679
vt 0.547419 0.5863868
vt 0.53013 0.5311679
vt 0.5471966 0.543709
vt 0.5474188 0.5863869
vt 0.5471964 0.5437092
vt 0.5535247 0.5639207
vt 0.5116826 0.5485917
vt 0.5248665 0.5621778
vt 0.539284 0.5807498
vt 0.4926167 0.4657252
vt 0.5178102 0.468839
vt 0.537344 0.4731658
vt 0.5214096 0.5421667
vt 0.552286 0.5711949
vt 0.4779088 0.529377
vt 0.4607157 0.5807496
vt 0.4751333 0.5621777
vt 0.4883172 0.5485916
vt 0.4609068 0.4574986
vt 0.4800436 0.4513281
vt 0.5052284 0.4481451
vt 0.4883171 0.5485915
vt 0.5301299 0.5311679
vt 0.4607156 0.5807495
vt 0.4458971 0.5456803
vt 0.4640326 0.5345601
vt 0.5288643 0.5900356
vt 0.532423 0.4452163
vt 0.5453922 0.4192779
vt 0.5731194 0.4331416
vt 0.532423 0.4452163
vt 0.5731194 0.4331416
vt 0.5601502 0.45908
vt 0.467577 0.4452164
vt 0.4398498 0.45908
vt 0.4268806 0.4331416
vt 0.467577 0.4452163
vt 0.4268806 0.4331415
vt 0.4546078 0.4192779
vt 0.4598078 0.4469261
vt 0.4240216 0.4597069
vt 0.4142678 0.4323964
vt 0.4598078 0.4469261
vt 0.4142678 0.4323964
vt 0.450054 0.4196156
vt 0.5401922 0.4469261
vt 0.549946 0.4196156
vt 0.5857322 0.4323964
vt 0.5401922 0.4469261
vt 0.5857322 0.4323964
vt 0.5759784 0.4597069
vt 0.4863409 0.5152866
vt 0.5043593 0.5405123
vt 0.4734374 0.5625994
vt 0.4863409 0.5152866
vt 0.4734374 0.5625994
vt 0.455419 0.5373737
vt 0.5136591 0.5152866
vt 0.544581 0.5373737
vt 0.5265626 0.5625994
vt 0.5136591 0.5152866
vt 0.5265626 0.5625994
vt 0.4956407 0.5405123
vt 0.5033764 0.4307708
vt 0.5034359 0.4302744
vt 0.5425166 0.4495732
vt 0.5076599 0.4309083
vt 0.5455928 0.4520407
vt 0.5453129 0.452455
vt 0.4296597 0.4947818
vt 0.4072507 0.5304667
vt 0.4292796 0.494457
vt 0.4181462 0.4686159
vt 0.4179795 0.4681445
vt 0.4514213 0.4507725
vt 0.5248583 0.4395119
vt 0.5251107 0.4390802
vt 0.6109849 0.4978787
vt 0.5203156 0.4386262
vt 0.6102008 0.49102
vt 0.6098313 0.4913569
vt 0.4755752 0.4914259
vt 0.4196125 0.5405897
vt 0.439771 0.5037031
vt 0.5246089 0.4912689
vt 0.5602334 0.5035586
vt 0.5805993 0.5405343
vt 0.4743053 0.489547
vt 0.5155614 0.5029612
vt 0.4177779 0.5380605
vt 0.5823289 0.5381539
vt 0.4843681 0.5030072
vt 0.5258079 0.4894983
vt 0.4214982 0.4824357
vt 0.3966981 0.5163759
vt 0.3962439 0.5161669
vt 0.4554664 0.4459896
vt 0.4557435 0.4464057
vt 0.4207861 0.4609194
vt 0.5193565 0.448384
vt 0.5191371 0.4479347
vt 0.5620426 0.4303477
vt 0.4027054 0.4556963
vt 0.3597681 0.4660186
vt 0.4026442 0.4552001
vt 0.465414 0.4534532
vt 0.4288478 0.4661522
vt 0.428679 0.4656815
vt 0.4965165 0.4460524
vt 0.4967824 0.4456289
vt 0.5971968 0.4866101
vt 0.5673867 0.5046826
vt 0.6077843 0.5719836
vt 0.5747417 0.5426859
vt 0.4323921 0.5036483
vt 0.4243795 0.5415834
vt 0.3907365 0.5705219
vt 0.5106344 0.4267246
vt 0.5533026 0.4088464
vt 0.5535884 0.4092567
vt 0.3708828 0.5350617
vt 0.4153627 0.4361474
vt 0.4278916 0.480681
vt 0.5722115 0.4810956
vt 0.5848762 0.4365196
vt 0.6285758 0.5357258
vt 0.3595846 0.4637042
vt 0.35928 0.4631026
vt 0.4025207 0.4531265
vt 0.6084185 0.4553971
vt 0.6080509 0.4559624
vt 0.507124 0.4163986
vt 0.4330397 0.4814009
vt 0.469392 0.4679181
vt 0.4695099 0.468404
vt 0.454179 0.5019469
vt 0.4164298 0.4742736
vt 0.4166953 0.4738721
vt 0.4643975 0.5117095
vt 0.5041917 0.529808
vt 0.5039611 0.5302305
vt 0.4619698 0.5138566
vt 0.5006807 0.5340993
vt 0.4616663 0.5142302
vt 0.4270793 0.4358333
vt 0.4417805 0.4612269
vt 0.4267844 0.4362138
vt 0.5822611 0.4170147
vt 0.5826657 0.4172755
vt 0.5477079 0.4714807
vt 0.5822613 0.4170148
vt 0.5477081 0.4714808
vt 0.5473036 0.47122
vt 0.4923758 0.4067115
vt 0.5339759 0.3854578
vt 0.5343855 0.4499565
vt 0.5076094 0.4068691
vt 0.4655994 0.4499722
vt 0.4659797 0.3854733
vt 0.4271505 0.4357056
vt 0.4422227 0.4609231
vt 0.4417903 0.4611346
vt 0.5324934 0.4501621
vt 0.4907653 0.4371277
vt 0.4896217 0.4077715
vt 0.5104423 0.4079752
vt 0.5093343 0.4371182
vt 0.467553 0.4502035
vt 0.4260823 0.4635712
vt 0.4673358 0.4854901
vt 0.4672176 0.4859567
vt 0.5849965 0.5236919
vt 0.5853047 0.5233222
vt 0.6220666 0.5471239
vt 0.4812509 0.5294394
vt 0.4734426 0.5711536
vt 0.4729725 0.5710499
vt 0.481874 0.5296222
vt 0.4737945 0.5712717
vt 0.4813972 0.5295561
vt 0.499741 0.4049308
vt 0.4943219 0.4336735
vt 0.4938443 0.4336136
vt 0.4980013 0.4047643
vt 0.4923641 0.4334993
vt 0.4975524 0.4045906
vt 0.488402 0.3895624
vt 0.5003648 0.4456933
vt 0.4998929 0.4457884
vt 0.5978321 0.4496378
vt 0.6094992 0.5077807
vt 0.5828458 0.4747559
vt 0.4021073 0.4495752
vt 0.417163 0.4747934
vt 0.3905311 0.5077895
vt 0.389878 0.5069136
vt 0.3591792 0.4586121
vt 0.4018536 0.4487802
vt 0.5980673 0.4488424
vt 0.6408606 0.4584333
vt 0.6101353 0.5069034
vt 0.4362856 0.5565231
vt 0.4084317 0.5903156
vt 0.4080606 0.5900091
vt 0.5112774 0.3873405
vt 0.5117471 0.3874455
vt 0.5183082 0.4442998
o group2080987173
g mesh2080987173
usemtl mat18
f 3/3/1 2/2/1 1/1/1
f 4/6/2 3/5/2 1/4/2
f 6/9/3 5/8/3 2/7/3
f 3/12/4 6/11/4 2/10/4
f 8/15/5 7/14/5 5/13/5
f 6/18/6 8/17/6 5/16/6
f 10/21/7 9/20/7 7/19/7
f 8/24/8 10/23/8 7/22/8
f 12/27/9 11/26/9 9/25/9
f 10/30/10 12/29/10 9/28/10
f 14/33/11 13/32/11 11/31/11
f 12/36/12 14/35/12 11/34/12
f 14/39/13 15/38/13 13/37/13
f 15/42/14 17/41/14 16/40/14
f 19/45/15 18/44/15 16/43/15
f 17/48/16 19/47/16 16/46/16
f 21/51/17 20/50/17 18/49/17
f 19/54/18 21/53/18 18/52/18
f 23/57/19 22/56/19 20/55/19
f 21/60/20 23/59/20 20/58/20
f 4/63/21 1/62/21 22/61/21
f 23/66/22 4/65/22 22/64/22
f 20/69/23 22/68/23 1/67/23
f 18/72/24 20/71/24 1/70/24
f 16/75/25 18/74/25 1/73/25
f 9/78/26 16/77/26 1/76/26
f 7/81/27 9/80/27 1/79/27
f 5/84/28 7/83/28 1/82/28
f 2/87/29 5/86/29 1/85/29
f 3/90/30 4/89/30 23/88/30
f 6/93/31 3/92/31 23/91/31
f 8/96/32 6/95/32 23/94/32
f 10/99/33 8/98/33 23/97/33
f 17/102/34 10/101/34 23/100/34
f 19/105/35 17/104/35 23/103/35
f 21/108/36 19/107/36 23/106/36
f 9/111/37 11/110/37 13/109/37
f 13/114/38 24/113/38 16/112/38
f 16/117/39 9/116/39 13/115/39
f 14/120/40 12/119/40 10/118/40
f 17/123/41 15/122/41 14/121/41
f 10/126/42 17/125/42 14/124/42
f 15/129/43 24/128/43 13/127/43
f 16/132/44 24/131/44 15/130/44
o group679462135
g mesh679462135
usemtl mat18
f 27/135/45 26/134/45 25/133/45
f 28/138/46 27/137/46 25/136/46
f 30/141/47 29/140/47 26/139/47
f 27/144/48 30/143/48 26/142/48
f 32/147/49 31/146/49 29/145/49
f 30/150/50 32/149/50 29/148/50
f 34/153/51 33/152/51 31/151/51
f 32/156/52 34/155/52 31/154/52
f 36/159/53 35/158/53 33/157/53
f 34/162/54 36/161/54 33/160/54
f 38/165/55 37/164/55 35/163/55
f 36/168/56 38/167/56 35/166/56
f 40/171/57 39/170/57 37/169/57
f 38/174/58 40/173/58 37/172/58
f 42/177/59 41/176/59 39/175/59
f 40/180/60 42/179/60 39/178/60
f 44/183/61 43/182/61 41/181/61
f 42/186/62 44/185/62 41/184/62
f 46/189/63 45/188/63 43/187/63
f 44/192/64 46/191/64 43/190/64
f 48/195/65 47/194/65 45/193/65
f 46/198/66 48/197/66 45/196/66
f 28/201/67 25/200/67 47/199/67
f 48/204/68 28/203/68 47/202/68
f 45/207/69 47/206/69 25/205/69
f 43/210/70 45/209/70 25/208/70
f 33/213/71 43/212/71 25/211/71
f 31/216/72 33/215/72 25/214/72
f 29/219/73 31/218/73 25/217/73
f 26/222/74 29/221/74 25/220/74
f 27/225/75 28/224/75 48/223/75
f 30/228/76 27/227/76 48/226/76
f 32/231/77 30/230/77 48/229/77
f 34/234/78 32/233/78 48/232/78
f 42/237/79 34/236/79 48/235/79
f 44/240/80 42/239/80 48/238/80
f 46/243/81 44/242/81 48/241/81
f 33/246/82 35/245/82 37/244/82
f 37/249/83 39/248/83 41/247/83
f 41/252/84 33/251/84 37/250/84
f 38/255/85 36/254/85 34/253/85
f 42/258/86 40/257/86 38/256/86
f 34/261/87 42/260/87 38/259/87
f 33/264/88 41/263/88 43/262/88
o group817208922
g mesh817208922
usemtl mat18
f 51/267/89 50/266/89 49/265/89
f 52/270/90 51/269/90 49/268/90
f 55/273/91 54/272/91 53/271/91
f 56/276/92 55/275/92 53/274/92
f 56/279/93 53/278/93 49/277/93
f 50/282/94 56/281/94 49/280/94
f 55/285/95 51/284/95 52/283/95
f 54/288/96 55/287/96 52/286/96
f 54/291/97 52/290/97 49/289/97
f 53/294/98 54/293/98 49/292/98
f 55/297/99 56/296/99 50/295/99
f 51/300/100 55/299/100 50/298/100
o group86772562
g mesh86772562
usemtl mat18
f 59/303/101 58/302/101 57/301/101
f 60/306/102 59/305/102 57/304/102
f 63/309/103 62/308/103 61/307/103
f 58/312/104 63/311/104 61/310/104
f 62/315/105 59/314/105 60/313/105
f 64/318/106 62/317/106 60/316/106
f 61/321/107 64/320/107 57/319/107
f 62/324/108 63/323/108 58/322/108
f 64/327/109 60/326/109 57/325/109
f 58/330/110 59/329/110 62/328/110
f 62/333/111 64/332/111 61/331/111
f 61/336/112 57/335/112 58/334/112
o group900788992
g mesh900788992
usemtl mat18
f 67/339/113 66/338/113 65/337/113
f 70/342/114 69/341/114 68/340/114
f 70/345/115 68/344/115 65/343/115
f 72/348/116 71/347/116 67/346/116
f 68/351/117 69/350/117 65/349/117
f 72/354/118 70/353/118 66/352/118
f 67/357/119 71/356/119 66/355/119
f 66/360/120 71/359/120 72/358/120
f 69/363/121 67/362/121 65/361/121
f 70/366/122 72/365/122 69/364/122
f 67/369/123 69/368/123 72/367/123
f 65/372/124 66/371/124 70/370/124
o group321709746
g mesh321709746
usemtl mat18
f 75/375/125 74/374/125 73/373/125
f 78/378/126 77/377/126 76/376/126
f 79/381/127 78/380/127 76/379/127
f 73/384/128 79/383/128 80/382/128
f 78/387/129 74/386/129 75/385/129
f 77/390/130 78/389/130 75/388/130
f 77/393/131 75/392/131 80/391/131
f 74/396/132 78/395/132 73/394/132
f 79/399/133 76/398/133 80/397/133
f 80/402/134 76/401/134 77/400/134
f 78/405/135 79/404/135 73/403/135
f 73/408/136 80/407/136 75/406/136
o group51715418
g mesh51715418
usemtl mat18
f 83/411/137 82/410/137 81/409/137
f 86/414/138 85/413/138 84/412/138
f 87/417/139 86/416/139 84/415/139
f 87/420/140 84/419/140 81/418/140
f 82/423/141 87/422/141 81/421/141
f 85/426/142 86/425/142 83/424/142
f 84/429/143 85/428/143 81/427/143
f 86/432/144 87/431/144 82/430/144
f 82/435/145 88/434/145 86/433/145
f 85/438/146 83/437/146 81/436/146
f 83/441/147 88/440/147 82/439/147
f 86/444/148 88/443/148 83/442/148
